<svg width="1280" height="400" viewBox="0 0 1280 400" fill="none" xmlns="http://www.w3.org/2000/svg">
<rect width="1280" height="400" fill="url(#paint0_linear_1_2)"/>
<path d="M331.046 214V166.32H339.75V214H331.046ZM350.905 184.624V180.464C352.313 180.123 353.443 179.504 354.297 178.608C355.193 177.669 355.747 176.56 355.961 175.28H352.185V166.32H360.633V171.824C360.633 175.28 359.801 178.117 358.137 180.336C356.515 182.512 354.105 183.941 350.905 184.624ZM371.092 214V179.184H378.964V187.248L378.068 185.904C378.708 183.387 379.988 181.509 381.908 180.272C383.828 179.035 386.089 178.416 388.692 178.416C391.55 178.416 394.068 179.163 396.244 180.656C398.42 182.149 399.828 184.112 400.468 186.544L398.1 186.736C399.166 183.963 400.766 181.893 402.9 180.528C405.033 179.12 407.486 178.416 410.26 178.416C412.734 178.416 414.932 178.971 416.852 180.08C418.814 181.189 420.35 182.747 421.46 184.752C422.569 186.715 423.124 188.997 423.124 191.6V214H414.74V193.584C414.74 192.048 414.462 190.725 413.908 189.616C413.353 188.507 412.585 187.653 411.604 187.056C410.622 186.416 409.428 186.096 408.02 186.096C406.697 186.096 405.524 186.416 404.5 187.056C403.476 187.653 402.686 188.507 402.132 189.616C401.577 190.725 401.3 192.048 401.3 193.584V214H392.916V193.584C392.916 192.048 392.638 190.725 392.084 189.616C391.529 188.507 390.74 187.653 389.716 187.056C388.734 186.416 387.561 186.096 386.196 186.096C384.873 186.096 383.7 186.416 382.676 187.056C381.652 187.653 380.862 188.507 380.308 189.616C379.753 190.725 379.476 192.048 379.476 193.584V214H371.092ZM442.296 214V166.32H449.08L475.319 201.648L471.8 202.352V166.32H480.504V214H473.656L447.8 178.416L451 177.712V214H442.296ZM501.445 214.768C498.757 214.768 496.41 214.171 494.405 212.976C492.442 211.781 490.928 210.117 489.861 207.984C488.837 205.851 488.325 203.355 488.325 200.496V179.184H496.709V199.792C496.709 201.243 496.986 202.523 497.541 203.632C498.138 204.699 498.97 205.552 500.037 206.192C501.146 206.789 502.384 207.088 503.749 207.088C505.114 207.088 506.33 206.789 507.397 206.192C508.464 205.552 509.296 204.677 509.893 203.568C510.49 202.459 510.789 201.136 510.789 199.6V179.184H519.173V214H511.237V207.152L511.941 208.368C511.13 210.501 509.786 212.101 507.909 213.168C506.074 214.235 503.92 214.768 501.445 214.768ZM526.967 214V179.184H534.839V186.928L534.199 185.776C535.009 183.173 536.268 181.36 537.975 180.336C539.724 179.312 541.815 178.8 544.247 178.8H546.295V186.224H543.287C540.897 186.224 538.977 186.971 537.527 188.464C536.076 189.915 535.351 191.963 535.351 194.608V214H526.967ZM554.936 214V186.672H548.792V179.184H554.936V178.032C554.936 175.387 555.469 173.147 556.536 171.312C557.645 169.435 559.181 168.005 561.144 167.024C563.107 166.043 565.432 165.552 568.12 165.552C568.632 165.552 569.187 165.595 569.784 165.68C570.424 165.723 570.957 165.787 571.384 165.872V173.104C570.957 173.019 570.552 172.976 570.168 172.976C569.827 172.933 569.507 172.912 569.208 172.912C567.331 172.912 565.88 173.339 564.856 174.192C563.832 175.003 563.32 176.283 563.32 178.032V179.184H571.064V186.672H563.32V214H554.936ZM586.964 214.768C584.532 214.768 582.42 214.363 580.628 213.552C578.836 212.741 577.449 211.589 576.468 210.096C575.487 208.56 574.996 206.789 574.996 204.784C574.996 202.864 575.423 201.157 576.276 199.664C577.129 198.128 578.452 196.848 580.244 195.824C582.036 194.8 584.297 194.075 587.028 193.648L598.42 191.792V198.192L588.628 199.856C586.964 200.155 585.727 200.688 584.916 201.456C584.105 202.224 583.7 203.227 583.7 204.464C583.7 205.659 584.148 206.619 585.044 207.344C585.983 208.027 587.135 208.368 588.5 208.368C590.249 208.368 591.785 208.005 593.108 207.28C594.473 206.512 595.519 205.467 596.244 204.144C597.012 202.821 597.396 201.371 597.396 199.792V190.832C597.396 189.339 596.799 188.101 595.604 187.12C594.452 186.096 592.916 185.584 590.996 185.584C589.204 185.584 587.604 186.075 586.196 187.056C584.831 187.995 583.828 189.253 583.188 190.832L576.34 187.504C577.023 185.669 578.089 184.091 579.54 182.768C581.033 181.403 582.783 180.336 584.788 179.568C586.793 178.8 588.969 178.416 591.316 178.416C594.175 178.416 596.692 178.949 598.868 180.016C601.044 181.04 602.729 182.491 603.924 184.368C605.161 186.203 605.78 188.357 605.78 190.832V214H597.844V208.048L599.636 207.92C598.74 209.413 597.673 210.672 596.436 211.696C595.199 212.677 593.791 213.445 592.212 214C590.633 214.512 588.884 214.768 586.964 214.768ZM629.721 214.768C626.35 214.768 623.342 213.979 620.697 212.4C618.052 210.779 615.961 208.581 614.425 205.808C612.889 203.035 612.121 199.963 612.121 196.592C612.121 193.179 612.889 190.107 614.425 187.376C615.961 184.645 618.052 182.469 620.697 180.848C623.385 179.227 626.372 178.416 629.657 178.416C632.302 178.416 634.649 178.949 636.697 180.016C638.788 181.04 640.43 182.491 641.625 184.368L640.345 186.096V165.552H648.729V214H640.793V207.28L641.689 208.944C640.494 210.821 638.83 212.272 636.697 213.296C634.564 214.277 632.238 214.768 629.721 214.768ZM630.617 207.088C632.537 207.088 634.222 206.64 635.673 205.744C637.124 204.848 638.254 203.611 639.065 202.032C639.918 200.453 640.345 198.64 640.345 196.592C640.345 194.587 639.918 192.795 639.065 191.216C638.254 189.595 637.124 188.336 635.673 187.44C634.222 186.544 632.537 186.096 630.617 186.096C628.74 186.096 627.054 186.565 625.561 187.504C624.068 188.4 622.894 189.637 622.041 191.216C621.23 192.752 620.825 194.544 620.825 196.592C620.825 198.64 621.23 200.453 622.041 202.032C622.894 203.611 624.068 204.848 625.561 205.744C627.054 206.64 628.74 207.088 630.617 207.088ZM656.529 214V179.184H664.913V214H656.529ZM656.529 175.28V166.32H664.913V175.28H656.529ZM672.654 214V165.552H681.038V214H672.654ZM688.779 214V165.552H697.163V214H688.779ZM715.464 214.768C713.032 214.768 710.92 214.363 709.128 213.552C707.336 212.741 705.949 211.589 704.968 210.096C703.987 208.56 703.496 206.789 703.496 204.784C703.496 202.864 703.923 201.157 704.776 199.664C705.629 198.128 706.952 196.848 708.744 195.824C710.536 194.8 712.797 194.075 715.528 193.648L726.92 191.792V198.192L717.128 199.856C715.464 200.155 714.227 200.688 713.416 201.456C712.605 202.224 712.2 203.227 712.2 204.464C712.2 205.659 712.648 206.619 713.544 207.344C714.483 208.027 715.635 208.368 717 208.368C718.749 208.368 720.285 208.005 721.608 207.28C722.973 206.512 724.019 205.467 724.744 204.144C725.512 202.821 725.896 201.371 725.896 199.792V190.832C725.896 189.339 725.299 188.101 724.104 187.12C722.952 186.096 721.416 185.584 719.496 185.584C717.704 185.584 716.104 186.075 714.696 187.056C713.331 187.995 712.328 189.253 711.688 190.832L704.84 187.504C705.523 185.669 706.589 184.091 708.04 182.768C709.533 181.403 711.283 180.336 713.288 179.568C715.293 178.8 717.469 178.416 719.816 178.416C722.675 178.416 725.192 178.949 727.368 180.016C729.544 181.04 731.229 182.491 732.424 184.368C733.661 186.203 734.28 188.357 734.28 190.832V214H726.344V208.048L728.136 207.92C727.24 209.413 726.173 210.672 724.936 211.696C723.699 212.677 722.291 213.445 720.712 214C719.133 214.512 717.384 214.768 715.464 214.768ZM742.029 214V165.552H750.413V186.032L749.261 184.816C750.072 182.725 751.394 181.147 753.229 180.08C755.106 178.971 757.282 178.416 759.757 178.416C762.317 178.416 764.578 178.971 766.541 180.08C768.546 181.189 770.104 182.747 771.213 184.752C772.322 186.715 772.877 188.997 772.877 191.6V214H764.493V193.584C764.493 192.048 764.194 190.725 763.597 189.616C763 188.507 762.168 187.653 761.101 187.056C760.077 186.416 758.861 186.096 757.453 186.096C756.088 186.096 754.872 186.416 753.805 187.056C752.738 187.653 751.906 188.507 751.309 189.616C750.712 190.725 750.413 192.048 750.413 193.584V214H742.029ZM810.414 214.768C806.744 214.768 803.48 214 800.622 212.464C797.806 210.928 795.587 208.816 793.966 206.128C792.344 203.44 791.534 200.389 791.534 196.976V166.32H800.238V196.528C800.238 198.491 800.664 200.261 801.518 201.84C802.414 203.419 803.63 204.656 805.166 205.552C806.702 206.405 808.451 206.832 810.414 206.832C812.419 206.832 814.168 206.405 815.662 205.552C817.198 204.656 818.392 203.419 819.246 201.84C820.142 200.261 820.59 198.491 820.59 196.528V166.32H829.294V196.976C829.294 200.389 828.483 203.44 826.862 206.128C825.24 208.816 823 210.928 820.142 212.464C817.326 214 814.083 214.768 810.414 214.768ZM837.279 214V179.184H845.151V187.248L844.255 185.904C844.895 183.387 846.175 181.509 848.095 180.272C850.015 179.035 852.276 178.416 854.879 178.416C857.738 178.416 860.255 179.163 862.431 180.656C864.607 182.149 866.015 184.112 866.655 186.544L864.287 186.736C865.354 183.963 866.954 181.893 869.087 180.528C871.22 179.12 873.674 178.416 876.447 178.416C878.922 178.416 881.119 178.971 883.039 180.08C885.002 181.189 886.538 182.747 887.647 184.752C888.756 186.715 889.311 188.997 889.311 191.6V214H880.927V193.584C880.927 192.048 880.65 190.725 880.095 189.616C879.54 188.507 878.772 187.653 877.791 187.056C876.81 186.416 875.615 186.096 874.207 186.096C872.884 186.096 871.711 186.416 870.687 187.056C869.663 187.653 868.874 188.507 868.319 189.616C867.764 190.725 867.487 192.048 867.487 193.584V214H859.103V193.584C859.103 192.048 858.826 190.725 858.271 189.616C857.716 188.507 856.927 187.653 855.903 187.056C854.922 186.416 853.748 186.096 852.383 186.096C851.06 186.096 849.887 186.416 848.863 187.056C847.839 187.653 847.05 188.507 846.495 189.616C845.94 190.725 845.663 192.048 845.663 193.584V214H837.279ZM906.964 214.768C904.532 214.768 902.42 214.363 900.628 213.552C898.836 212.741 897.449 211.589 896.468 210.096C895.487 208.56 894.996 206.789 894.996 204.784C894.996 202.864 895.423 201.157 896.276 199.664C897.129 198.128 898.452 196.848 900.244 195.824C902.036 194.8 904.297 194.075 907.028 193.648L918.42 191.792V198.192L908.628 199.856C906.964 200.155 905.727 200.688 904.916 201.456C904.105 202.224 903.7 203.227 903.7 204.464C903.7 205.659 904.148 206.619 905.044 207.344C905.983 208.027 907.135 208.368 908.5 208.368C910.249 208.368 911.785 208.005 913.108 207.28C914.473 206.512 915.519 205.467 916.244 204.144C917.012 202.821 917.396 201.371 917.396 199.792V190.832C917.396 189.339 916.799 188.101 915.604 187.12C914.452 186.096 912.916 185.584 910.996 185.584C909.204 185.584 907.604 186.075 906.196 187.056C904.831 187.995 903.828 189.253 903.188 190.832L896.34 187.504C897.023 185.669 898.089 184.091 899.54 182.768C901.033 181.403 902.783 180.336 904.788 179.568C906.793 178.8 908.969 178.416 911.316 178.416C914.175 178.416 916.692 178.949 918.868 180.016C921.044 181.04 922.729 182.491 923.924 184.368C925.161 186.203 925.78 188.357 925.78 190.832V214H917.844V208.048L919.636 207.92C918.74 209.413 917.673 210.672 916.436 211.696C915.199 212.677 913.791 213.445 912.212 214C910.633 214.512 908.884 214.768 906.964 214.768ZM933.529 214V179.184H941.401V186.928L940.761 185.776C941.572 183.173 942.83 181.36 944.537 180.336C946.286 179.312 948.377 178.8 950.809 178.8H952.857V186.224H949.849C947.46 186.224 945.54 186.971 944.089 188.464C942.638 189.915 941.913 191.963 941.913 194.608V214H933.529Z" fill="white"/>
<path d="M526.992 258V240.12H538.32V242.28H529.344V248.064H537.48V250.224H529.344V258H526.992ZM539.994 258V245.064H542.178V247.44L541.938 247.104C542.242 246.368 542.706 245.824 543.33 245.472C543.954 245.104 544.714 244.92 545.61 244.92H546.402V247.032H545.274C544.362 247.032 543.626 247.32 543.066 247.896C542.506 248.456 542.226 249.256 542.226 250.296V258H539.994ZM554.528 258.288C553.28 258.288 552.152 258 551.144 257.424C550.136 256.832 549.336 256.024 548.744 255C548.152 253.976 547.856 252.816 547.856 251.52C547.856 250.224 548.144 249.072 548.72 248.064C549.312 247.056 550.112 246.256 551.12 245.664C552.128 245.072 553.264 244.776 554.528 244.776C555.776 244.776 556.904 245.072 557.912 245.664C558.92 246.24 559.712 247.032 560.288 248.04C560.88 249.048 561.176 250.208 561.176 251.52C561.176 252.832 560.872 254 560.264 255.024C559.656 256.032 558.848 256.832 557.84 257.424C556.848 258 555.744 258.288 554.528 258.288ZM554.528 256.128C555.328 256.128 556.048 255.928 556.688 255.528C557.344 255.128 557.856 254.576 558.224 253.872C558.608 253.168 558.8 252.384 558.8 251.52C558.8 250.64 558.608 249.864 558.224 249.192C557.856 248.504 557.344 247.96 556.688 247.56C556.048 247.144 555.328 246.936 554.528 246.936C553.712 246.936 552.976 247.144 552.32 247.56C551.68 247.96 551.168 248.504 550.784 249.192C550.4 249.864 550.208 250.64 550.208 251.52C550.208 252.384 550.4 253.168 550.784 253.872C551.168 254.576 551.68 255.128 552.32 255.528C552.976 255.928 553.712 256.128 554.528 256.128ZM564.087 258V245.064H566.271V247.584L565.911 247.368C566.231 246.552 566.743 245.92 567.447 245.472C568.167 245.008 569.007 244.776 569.967 244.776C570.895 244.776 571.719 244.984 572.439 245.4C573.175 245.816 573.751 246.392 574.167 247.128C574.599 247.864 574.815 248.696 574.815 249.624V258H572.559V250.344C572.559 249.624 572.431 249.016 572.175 248.52C571.919 248.024 571.551 247.64 571.071 247.368C570.607 247.08 570.071 246.936 569.463 246.936C568.855 246.936 568.311 247.08 567.831 247.368C567.367 247.64 566.999 248.032 566.727 248.544C566.455 249.04 566.319 249.64 566.319 250.344V258H564.087ZM583.265 258.144C582.001 258.144 581.025 257.784 580.337 257.064C579.665 256.344 579.329 255.328 579.329 254.016V247.2H576.977V245.064H577.457C578.033 245.064 578.489 244.888 578.825 244.536C579.161 244.184 579.329 243.72 579.329 243.144V242.088H581.561V245.064H584.465V247.2H581.561V253.944C581.561 254.376 581.625 254.752 581.753 255.072C581.897 255.392 582.129 255.648 582.449 255.84C582.769 256.016 583.193 256.104 583.721 256.104C583.833 256.104 583.969 256.096 584.129 256.08C584.305 256.064 584.465 256.048 584.609 256.032V258C584.401 258.048 584.169 258.08 583.913 258.096C583.657 258.128 583.441 258.144 583.265 258.144ZM593.125 258.288C591.877 258.288 590.765 257.992 589.789 257.4C588.813 256.808 588.045 256 587.485 254.976C586.925 253.936 586.645 252.776 586.645 251.496C586.645 250.2 586.917 249.048 587.461 248.04C588.021 247.032 588.773 246.24 589.717 245.664C590.677 245.072 591.749 244.776 592.933 244.776C593.893 244.776 594.741 244.952 595.477 245.304C596.229 245.64 596.861 246.104 597.373 246.696C597.901 247.272 598.301 247.936 598.573 248.688C598.861 249.424 599.005 250.192 599.005 250.992C599.005 251.168 598.989 251.368 598.957 251.592C598.941 251.8 598.917 252 598.885 252.192H588.277V250.272H597.589L596.533 251.136C596.677 250.304 596.597 249.56 596.293 248.904C595.989 248.248 595.541 247.728 594.949 247.344C594.357 246.96 593.685 246.768 592.933 246.768C592.181 246.768 591.493 246.96 590.869 247.344C590.245 247.728 589.757 248.28 589.405 249C589.069 249.704 588.933 250.544 588.997 251.52C588.933 252.464 589.077 253.296 589.429 254.016C589.797 254.72 590.309 255.272 590.965 255.672C591.637 256.056 592.365 256.248 593.149 256.248C594.013 256.248 594.741 256.048 595.333 255.648C595.925 255.248 596.405 254.736 596.773 254.112L598.645 255.072C598.389 255.664 597.989 256.208 597.445 256.704C596.917 257.184 596.285 257.568 595.549 257.856C594.829 258.144 594.021 258.288 593.125 258.288ZM601.916 258V245.064H604.1V247.584L603.74 247.368C604.06 246.552 604.572 245.92 605.276 245.472C605.996 245.008 606.836 244.776 607.796 244.776C608.724 244.776 609.548 244.984 610.268 245.4C611.004 245.816 611.58 246.392 611.996 247.128C612.428 247.864 612.644 248.696 612.644 249.624V258H610.388V250.344C610.388 249.624 610.26 249.016 610.004 248.52C609.748 248.024 609.38 247.64 608.9 247.368C608.436 247.08 607.9 246.936 607.292 246.936C606.684 246.936 606.14 247.08 605.66 247.368C605.196 247.64 604.828 248.032 604.556 248.544C604.284 249.04 604.148 249.64 604.148 250.344V258H601.916ZM621.717 258.288C620.501 258.288 619.405 257.992 618.429 257.4C617.469 256.808 616.709 256 616.149 254.976C615.589 253.952 615.309 252.808 615.309 251.544C615.309 250.248 615.589 249.096 616.149 248.088C616.709 247.064 617.469 246.256 618.429 245.664C619.405 245.072 620.501 244.776 621.717 244.776C622.789 244.776 623.741 245.008 624.573 245.472C625.405 245.92 626.061 246.528 626.541 247.296L626.181 247.848V239.832H628.437V258H626.253V255.24L626.541 255.624C626.093 256.472 625.437 257.128 624.573 257.592C623.725 258.056 622.773 258.288 621.717 258.288ZM621.909 256.128C622.725 256.128 623.453 255.928 624.093 255.528C624.733 255.128 625.237 254.584 625.605 253.896C625.989 253.192 626.181 252.408 626.181 251.544C626.181 250.664 625.989 249.88 625.605 249.192C625.237 248.488 624.733 247.936 624.093 247.536C623.453 247.136 622.725 246.936 621.909 246.936C621.109 246.936 620.381 247.144 619.725 247.56C619.085 247.96 618.581 248.504 618.213 249.192C617.845 249.864 617.661 250.648 617.661 251.544C617.661 252.408 617.845 253.192 618.213 253.896C618.581 254.584 619.085 255.128 619.725 255.528C620.365 255.928 621.093 256.128 621.909 256.128ZM636.305 258V240.12H642.161C643.969 240.12 645.545 240.488 646.889 241.224C648.233 241.96 649.273 243 650.009 244.344C650.745 245.672 651.113 247.24 651.113 249.048C651.113 250.84 650.745 252.408 650.009 253.752C649.273 255.096 648.233 256.144 646.889 256.896C645.545 257.632 643.969 258 642.161 258H636.305ZM638.657 255.84H642.185C643.513 255.84 644.657 255.56 645.617 255C646.593 254.44 647.345 253.656 647.872 252.648C648.401 251.624 648.665 250.424 648.665 249.048C648.665 247.656 648.393 246.456 647.849 245.448C647.321 244.44 646.569 243.664 645.593 243.12C644.633 242.56 643.497 242.28 642.185 242.28H638.657V255.84ZM659.782 258.288C658.534 258.288 657.422 257.992 656.446 257.4C655.47 256.808 654.702 256 654.142 254.976C653.582 253.936 653.302 252.776 653.302 251.496C653.302 250.2 653.574 249.048 654.118 248.04C654.678 247.032 655.43 246.24 656.374 245.664C657.334 245.072 658.406 244.776 659.59 244.776C660.55 244.776 661.398 244.952 662.134 245.304C662.886 245.64 663.518 246.104 664.03 246.696C664.558 247.272 664.958 247.936 665.23 248.688C665.518 249.424 665.662 250.192 665.662 250.992C665.662 251.168 665.646 251.368 665.614 251.592C665.598 251.8 665.574 252 665.542 252.192H654.934V250.272H664.246L663.19 251.136C663.334 250.304 663.254 249.56 662.95 248.904C662.646 248.248 662.198 247.728 661.606 247.344C661.014 246.96 660.342 246.768 659.59 246.768C658.838 246.768 658.15 246.96 657.526 247.344C656.902 247.728 656.414 248.28 656.062 249C655.726 249.704 655.59 250.544 655.654 251.52C655.59 252.464 655.734 253.296 656.086 254.016C656.454 254.72 656.966 255.272 657.622 255.672C658.294 256.056 659.022 256.248 659.806 256.248C660.67 256.248 661.398 256.048 661.99 255.648C662.582 255.248 663.062 254.736 663.43 254.112L665.302 255.072C665.046 255.664 664.646 256.208 664.102 256.704C663.574 257.184 662.942 257.568 662.206 257.856C661.486 258.144 660.678 258.288 659.782 258.288ZM671.937 258L666.873 245.064H669.369L673.425 256.008H672.561L676.641 245.064H679.137L674.049 258H671.937ZM686.852 258.288C685.604 258.288 684.492 257.992 683.516 257.4C682.54 256.808 681.772 256 681.212 254.976C680.652 253.936 680.372 252.776 680.372 251.496C680.372 250.2 680.644 249.048 681.188 248.04C681.748 247.032 682.5 246.24 683.444 245.664C684.404 245.072 685.476 244.776 686.66 244.776C687.62 244.776 688.468 244.952 689.204 245.304C689.956 245.64 690.588 246.104 691.1 246.696C691.628 247.272 692.028 247.936 692.3 248.688C692.588 249.424 692.732 250.192 692.732 250.992C692.732 251.168 692.716 251.368 692.684 251.592C692.668 251.8 692.644 252 692.612 252.192H682.004V250.272H691.316L690.26 251.136C690.404 250.304 690.324 249.56 690.02 248.904C689.716 248.248 689.268 247.728 688.676 247.344C688.084 246.96 687.412 246.768 686.66 246.768C685.908 246.768 685.22 246.96 684.596 247.344C683.972 247.728 683.484 248.28 683.132 249C682.796 249.704 682.66 250.544 682.724 251.52C682.66 252.464 682.804 253.296 683.156 254.016C683.524 254.72 684.036 255.272 684.692 255.672C685.364 256.056 686.092 256.248 686.876 256.248C687.74 256.248 688.468 256.048 689.06 255.648C689.652 255.248 690.132 254.736 690.5 254.112L692.372 255.072C692.116 255.664 691.716 256.208 691.172 256.704C690.644 257.184 690.012 257.568 689.276 257.856C688.556 258.144 687.748 258.288 686.852 258.288ZM695.642 258V239.832H697.874V258H695.642ZM707.481 258.288C706.233 258.288 705.105 258 704.097 257.424C703.089 256.832 702.289 256.024 701.697 255C701.105 253.976 700.809 252.816 700.809 251.52C700.809 250.224 701.097 249.072 701.673 248.064C702.265 247.056 703.065 246.256 704.073 245.664C705.081 245.072 706.217 244.776 707.481 244.776C708.729 244.776 709.857 245.072 710.865 245.664C711.873 246.24 712.665 247.032 713.241 248.04C713.833 249.048 714.129 250.208 714.129 251.52C714.129 252.832 713.825 254 713.217 255.024C712.609 256.032 711.801 256.832 710.793 257.424C709.801 258 708.697 258.288 707.481 258.288ZM707.481 256.128C708.281 256.128 709.001 255.928 709.641 255.528C710.297 255.128 710.809 254.576 711.177 253.872C711.561 253.168 711.753 252.384 711.753 251.52C711.753 250.64 711.561 249.864 711.177 249.192C710.809 248.504 710.297 247.96 709.641 247.56C709.001 247.144 708.281 246.936 707.481 246.936C706.665 246.936 705.929 247.144 705.273 247.56C704.633 247.96 704.121 248.504 703.737 249.192C703.353 249.864 703.161 250.64 703.161 251.52C703.161 252.384 703.353 253.168 703.737 253.872C704.121 254.576 704.633 255.128 705.273 255.528C705.929 255.928 706.665 256.128 707.481 256.128ZM717.041 262.8V245.064H719.225V247.848L718.937 247.296C719.417 246.528 720.073 245.92 720.905 245.472C721.737 245.008 722.689 244.776 723.761 244.776C724.977 244.776 726.065 245.072 727.025 245.664C728.001 246.256 728.769 247.064 729.329 248.088C729.889 249.096 730.169 250.248 730.169 251.544C730.169 252.808 729.889 253.952 729.329 254.976C728.769 256 728.001 256.808 727.025 257.4C726.065 257.992 724.969 258.288 723.737 258.288C722.697 258.288 721.745 258.056 720.881 257.592C720.033 257.128 719.377 256.472 718.913 255.624L719.273 255.24V262.8H717.041ZM723.569 256.128C724.385 256.128 725.113 255.928 725.753 255.528C726.393 255.128 726.889 254.584 727.241 253.896C727.609 253.192 727.793 252.408 727.793 251.544C727.793 250.648 727.609 249.864 727.241 249.192C726.889 248.504 726.393 247.96 725.753 247.56C725.113 247.144 724.385 246.936 723.569 246.936C722.753 246.936 722.017 247.136 721.361 247.536C720.721 247.936 720.209 248.488 719.825 249.192C719.457 249.88 719.273 250.664 719.273 251.544C719.273 252.408 719.457 253.192 719.825 253.896C720.209 254.584 720.721 255.128 721.361 255.528C722.017 255.928 722.753 256.128 723.569 256.128ZM739.047 258.288C737.799 258.288 736.687 257.992 735.711 257.4C734.735 256.808 733.967 256 733.407 254.976C732.847 253.936 732.567 252.776 732.567 251.496C732.567 250.2 732.839 249.048 733.383 248.04C733.943 247.032 734.695 246.24 735.639 245.664C736.599 245.072 737.671 244.776 738.855 244.776C739.815 244.776 740.663 244.952 741.399 245.304C742.151 245.64 742.783 246.104 743.295 246.696C743.823 247.272 744.223 247.936 744.495 248.688C744.783 249.424 744.927 250.192 744.927 250.992C744.927 251.168 744.911 251.368 744.879 251.592C744.863 251.8 744.839 252 744.807 252.192H734.199V250.272H743.511L742.455 251.136C742.599 250.304 742.519 249.56 742.215 248.904C741.911 248.248 741.463 247.728 740.871 247.344C740.279 246.96 739.607 246.768 738.855 246.768C738.103 246.768 737.415 246.96 736.791 247.344C736.167 247.728 735.679 248.28 735.327 249C734.991 249.704 734.855 250.544 734.919 251.52C734.855 252.464 734.999 253.296 735.351 254.016C735.719 254.72 736.231 255.272 736.887 255.672C737.559 256.056 738.287 256.248 739.071 256.248C739.935 256.248 740.663 256.048 741.255 255.648C741.847 255.248 742.327 254.736 742.695 254.112L744.567 255.072C744.311 255.664 743.911 256.208 743.367 256.704C742.839 257.184 742.207 257.568 741.471 257.856C740.751 258.144 739.943 258.288 739.047 258.288ZM747.837 258V245.064H750.021V247.44L749.781 247.104C750.085 246.368 750.549 245.824 751.173 245.472C751.797 245.104 752.557 244.92 753.453 244.92H754.245V247.032H753.117C752.205 247.032 751.469 247.32 750.909 247.896C750.349 248.456 750.069 249.256 750.069 250.296V258H747.837Z" fill="white"/>
<defs>
<linearGradient id="paint0_linear_1_2" x1="780" y1="-126" x2="780" y2="721.5" gradientUnits="userSpaceOnUse">
<stop stop-color="#00B9E8"/>
<stop offset="0.177885"/>
<stop offset="0.572115" stop-color="#000A0C"/>
<stop offset="1" stop-color="#00B9E8"/>
</linearGradient>
</defs>
</svg>
